<svg xmlns="http://www.w3.org/2000/svg" width="256" height="256"><path fill-opacity=".016" d="M0 128.004v128.004l128.25-.254 128.25-.254.254-127.75L257.008 0H0v128.004m.485.496c0 70.4.119 99.053.265 63.672.146-35.38.146-92.98 0-128C.604 29.153.485 58.1.485 128.5" fill="#1976D2" fill-rule="evenodd"/><path fill-opacity=".498" d="M87.671 38.297C67.777 58.26 48.575 78.312 45 82.858 34.762 95.876 28.059 109.609 23.21 127.5c-3.686 13.601-3.861 31.711-.43 44.5 8.963 33.407 28.193 57.896 56.745 72.263 33.016 16.614 75.748 13.282 107.67-8.395 12.827-8.711 25.531-23.526 33.271-38.8C227.245 183.689 234 159.451 234 148.503c0-5.354-5.086-28.311-7.558-34.119-4.77-11.204-9.12-19.55-13.23-25.384-7.222-10.252-84.62-87-87.736-87-.899 0-17.911 16.333-37.805 36.297" fill="#1976D2" fill-rule="evenodd"/><path fill-opacity=".143" d="M74.199 53.357c-6.228 6.333-8.088 8.837-7.624 10.26.51 1.564.427 1.629-.49.383-.918-1.248-2.515-.044-9.504 7.161-11.787 12.155-18.686 21.709-24.574 34.034-9.722 20.352-13.073 41.695-9.553 60.846 7.76 42.228 36.524 73.903 77.371 85.202 10.484 2.901 38.881 3.179 49.948.49 32.082-7.796 57.331-27.976 71.013-56.758 7.457-15.688 12.987-38.809 11.929-49.882-.734-7.685-4.521-23.744-6.743-28.593-1.008-2.2-2.138-5.234-2.509-6.743-.976-3.957-2.463-2.364-2.463 2.638v4.278l-7.75 1.599c-16.473 3.399-21.326 3.939-29.5 3.279-22.111-1.784-25.824-2.837-46.332-13.142-17.227-8.657-27.737-17.86-38.152-33.409C93.454 66.323 87 54.459 87 52.452c0-.76-.89-1.858-1.977-2.44-1.683-.901-1.879-.794-1.313.715.574 1.532.443 1.593-.963.45-1.969-1.601-1.212-4.292.972-3.455 1.019.391 1.399.133 1.105-.75-.927-2.781-2.603-1.773-10.625 6.385" fill="#1976D2" fill-rule="evenodd"/><path fill-opacity=".481" d="M34.396 101.104c-10.047 18.888-14.041 37.462-12.313 57.255 1.044 11.949 2.788 19.122 7.41 30.464 14.295 35.083 46.225 59.772 83.007 64.184 21.973 2.636 44.56-1.488 63.318-11.561 24.748-13.289 41.431-33.482 49.94-60.446 3.672-11.638 4.709-17 3.287-17-.575 0-1.045.527-1.045 1.171s-.745 1.994-1.655 3c-1.54 1.702-1.54 1.829 0 1.829 1.826 0 1.927.539.655 3.5-.527 1.228-.887 1.443-.93.559-.051-1.049-.454-.916-1.481.489-.777 1.061-1.278 2.16-1.114 2.441.791 1.356-7.662 11.957-13.117 16.451-18.548 15.28-26.587 19.418-47.535 24.468-12.952 3.123-31.966 2.948-45.346-.417-12.664-3.185-24.466-7.98-31.973-12.991-1.648-1.1-4.219-2.675-5.715-3.5-3.489-1.925-13-11.036-18.834-18.042-11.345-13.623-19.019-29.438-23.322-48.066-1.384-5.99-1.439-12.653-.246-29.534.492-6.948-.675-8.608-2.991-4.254" fill="#1976D2" fill-rule="evenodd"/></svg>